<?xml version="1.0" encoding="UTF-8"?> <svg xmlns="http://www.w3.org/2000/svg" width="448" height="506" viewBox="0 0 448 506" fill="none"> <g clip-path="url(#clip0_108:39)"> <path d="M223.78 357.45C298.151 357.45 358.44 297.161 358.44 222.79C358.44 148.419 298.151 88.1299 223.78 88.1299C149.409 88.1299 89.1201 148.419 89.1201 222.79C89.1201 297.161 149.409 357.45 223.78 357.45Z" fill="#4D4D4D"></path> <path d="M382.02 65.5401C350.723 34.2493 310.85 12.9412 267.443 4.3099C224.037 -4.32135 179.046 0.111866 138.158 17.049C97.2711 33.9862 62.324 62.6667 37.7358 99.4642C13.1476 136.262 0.0225329 179.524 0.0200195 223.78C0.0200195 329.23 73.74 420.27 176.16 442.46L223.78 505.99L271.42 442.47C373.84 420.28 447.56 329.24 447.56 223.79C447.64 194.389 441.889 165.265 430.639 138.101C419.389 110.938 402.864 86.275 382.02 65.5401V65.5401ZM223.78 58.4201C314.41 58.4201 388.15 132.16 388.15 222.79C388.15 313.42 314.41 387.16 223.78 387.16C133.15 387.16 59.41 313.42 59.41 222.79C59.41 132.16 133.15 58.4201 223.78 58.4201Z" fill="#4D4D4D"></path> <path d="M169.642 291.91L134.389 166.008H169.102L188.527 245.326L211.01 166.008H236.37L258.852 245.326L278.457 166.008H312.99L277.918 291.91H243.924L223.78 220.865L203.635 291.91H169.642Z" fill="white"></path> </g> <defs> <clipPath id="clip0_108:39"> <rect width="447.56" height="505.98" fill="white"></rect> </clipPath> </defs> </svg> 